<?xml version="1.0" encoding="UTF-8"?>
<svg width="180" height="180" viewBox="0 0 180 180" xmlns="http://www.w3.org/2000/svg">
  <!-- Background Circle -->
  <circle cx="90" cy="90" r="85" fill="#24292E" />
  
  <!-- GitHub-style Octocat silhouette (simplified) -->
  <path d="M90 42C63.5 42 42 63.5 42 90c0 21.2 13.8 39.2 32.8 45.6 2.4.4 3.3-1 3.3-2.3 0-1.2 0-5.2-.1-9.4-13.4 2.9-16.2-5.7-16.2-5.7-2.2-5.5-5.3-7-5.3-7-4.4-3 .3-2.9.3-2.9 4.8.3 7.3 4.9 7.3 4.9 4.3 7.3 11.2 5.2 13.9 4 .4-3.1 1.7-5.2 3-6.4-10.6-1.2-21.8-5.3-21.8-23.6 0-5.2 1.9-9.5 4.9-12.8-.5-1.2-2.1-6 .5-12.5 0 0 4-1.3 13.1 4.9 3.8-1.1 7.9-1.6 11.9-1.6 4 0 8.1.5 11.9 1.6 9.1-6.2 13.1-4.9 13.1-4.9 2.6 6.5 1 11.3.5 12.5 3 3.3 4.9 7.6 4.9 12.8 0 18.3-11.2 22.4-21.8 23.6 1.7 1.5 3.2 4.3 3.2 8.7 0 6.4-.1 11.5-.1 13 0 1.3.9 2.7 3.3 2.3 19-6.3 32.7-24.3 32.7-45.5 0-26.5-21.5-48-48-48z" fill="#fff" />
  
  <!-- G and A letters -->
  <text x="90" y="140" font-family="Arial, sans-serif" font-size="28" font-weight="bold" text-anchor="middle" fill="#4EA5D9">GA</text>
  
  <!-- Checkmark -->
  <path d="M125 75l-25 25-15-15" stroke="#5CB85C" stroke-width="6" fill="none" stroke-linecap="round" stroke-linejoin="round" />
</svg>