<?xml version="1.0" encoding="UTF-8" standalone="no"?>
<svg width="512" height="512" viewBox="0 0 512 512" fill="none" xmlns="http://www.w3.org/2000/svg">
  <rect width="512" height="512" rx="100" fill="#3b82f6"/>
  <g transform="translate(128, 128)">
    <path d="M128 0C57.33 0 0 57.33 0 128C0 184.8 36.8 233.07 87.47 249.87C93.87 251.2 96.27 247.47 96.27 244C96.27 240.93 96 232.13 96 221.87C64 227.73 55.47 213.87 52.8 206.67C51.47 203.2 45.33 192 40 189.33C35.47 187.2 29.07 181.33 39.87 181.07C49.87 180.8 57.07 190.4 59.47 193.07C70.93 212.53 89.33 207.2 96.8 203.73C98 195.2 101.33 189.33 104.8 186C76.27 182.67 46.67 171.47 46.67 122.13C46.67 108 51.47 96.53 59.73 87.47C58.4 84.53 53.87 71.2 60.93 53.47C60.93 53.47 71.73 50 96.27 66.67C106.4 63.73 117.33 62.4 128.27 62.4C139.2 62.4 150.13 63.73 160.27 66.67C184.8 49.87 195.6 53.47 195.6 53.47C202.67 71.2 198.13 84.53 196.8 87.47C205.07 96.53 209.87 108 209.87 122.13C209.87 171.6 180.13 182.67 151.6 186C156 190.13 160 198.13 160 210.67C160 228.27 159.73 239.73 159.73 244C159.73 247.47 162.13 251.47 168.53 249.87C195.01 241.38 218.16 225.02 234.76 202.83C251.36 180.62 260.77 153.62 261.33 125.63C261.89 97.65 253.58 70.4 237.29 47.74C220.99 25.09 198.03 8.19 171.62 1.79C145.2 -4.61 117.4 -0.1 93.53 14.7C69.66 29.5 51.4 53.21 42.42 81.13C33.45 109.05 34.33 139.32 44.89 166.66" fill="white"/>
  </g>
</svg>