<?xml version="1.0" encoding="UTF-8" standalone="no"?>
<svg width="192" height="192" viewBox="0 0 192 192" fill="none" xmlns="http://www.w3.org/2000/svg">
  <rect width="192" height="192" rx="40" fill="#3b82f6"/>
  <g transform="translate(48, 48)">
    <path d="M48 0C21.5 0 0 21.5 0 48C0 69.3 13.8 87.4 32.8 93.7C35.2 94.2 36.1 92.8 36.1 91.5C36.1 90.4 36 87.1 36 83.2C24 85.4 20.8 80.2 19.8 77.5C19.3 76.2 17 72 15 70.8C13.3 69.8 10.9 67.6 14.9 67.5C18.7 67.4 21.4 71 22.3 72.3C26.6 79.6 33.5 77.7 36.3 76.4C36.7 73.2 38 71 39.3 69.7C28.6 68.4 17.5 64.2 17.5 45.7C17.5 40.5 19.3 36.2 22.4 32.9C21.9 31.7 20.2 26.7 22.9 20.1C22.9 20.1 26.9 18.8 36.1 25.1C39.9 24 44 23.5 48.1 23.5C52.2 23.5 56.3 24 60.1 25.1C69.3 18.7 73.3 20.1 73.3 20.1C76 26.7 74.3 31.7 73.8 32.9C76.9 36.2 78.7 40.4 78.7 45.7C78.7 64.3 67.5 68.4 56.8 69.7C58.5 71.3 60 74.3 60 79C60 85.6 59.9 89.9 59.9 91.5C59.9 92.8 60.8 94.3 63.2 93.7C73.13 90.52 81.81 84.38 88.035 76.06C94.26 67.73 97.7902 57.61 98 47.11C98.2099 36.62 95.0918 26.4 88.9849 17.9039C82.878 9.4078 74.2611 3.06992 64.3556 0.670895C54.4501 -1.72813 44.0247 -0.0374509 35.0734 5.5132C26.1222 11.0639 19.2733 19.9542 15.9094 30.4237C12.5455 40.8932 12.8737 52.2461 16.8345 62.5" fill="white"/>
  </g>
</svg>